<?xml version="1.0" encoding="UTF-8" standalone="no"?>
<svg
   version="1.1"
   id="Layer_1"
   x="0px"
   y="0px"
   viewBox="0 0 1700.0001 1300"
   enable-background="new 0 0 2073.077 1661.934"
   xml:space="preserve"
   sodipodi:docname="hands.svg"
   width="1700"
   height="1300"
   inkscape:version="1.2.1 (9c6d41e4, 2022-07-14)"
   xmlns:inkscape="http://www.inkscape.org/namespaces/inkscape"
   xmlns:sodipodi="http://sodipodi.sourceforge.net/DTD/sodipodi-0.dtd"
   xmlns="http://www.w3.org/2000/svg"
   xmlns:svg="http://www.w3.org/2000/svg"><defs
   id="defs29">
	
	
	
</defs><sodipodi:namedview
   id="namedview27"
   pagecolor="#ffffff"
   bordercolor="#000000"
   borderopacity="0.25"
   inkscape:showpageshadow="2"
   inkscape:pageopacity="0.0"
   inkscape:pagecheckerboard="0"
   inkscape:deskcolor="#d1d1d1"
   showgrid="false"
   inkscape:zoom="0.14200324"
   inkscape:cx="996.45617"
   inkscape:cy="802.79861"
   inkscape:window-width="1309"
   inkscape:window-height="456"
   inkscape:window-x="0"
   inkscape:window-y="25"
   inkscape:window-maximized="0"
   inkscape:current-layer="Layer_1" />
<g
   id="g10"
   transform="matrix(0.9457619,0,0,0.88696125,-269.92836,-231.12116)">
		<path
   d="m 1783.301,1060.001 c 45.483,-13.421 205.553,-173.078 144.073,-260.558 -13.603,-19.356 -16.282,-39.498 -13.594,-60.456 15.555,-121.253 -13.446,-202.659 12.468,-358.353 9.67,-58.1 71.058,-81.1 85.585,-28.406 4.366,15.838 4.778,32.071 6.856,48.169 13.058,101.115 12.014,202.755 15.478,304.348 5.165,151.478 -61.905,373.95 -81.429,414.327 -74.463,153.998 -208.405,164.893 -310.835,279.382 -94.798,105.957 -80.395,215.058 -138.331,226.093 -92.49,17.618 -169.107,1.245 -227.593,-77.672 -26.893,-36.289 -27.176,-42.741 -2.105,-79.68 23.755,-34.998 46.167,-70.505 54.817,-112.921 14.017,-68.732 3.79,-167.944 109.473,-212.167 50.055,-20.947 101.525,-39.271 146.9,-71.135 127.009,-89.185 156.565,-173.328 214.651,-224.106 119.935,-104.844 179.371,17.263 11.803,181.08 -10.149,9.927 -18.852,21.33 -28.217,32.055 z"
   id="path2" />
		<path
   d="m 1885.027,770.316 c -9.045,-1.531 -14.299,-7.55 -16.389,-16.224 0,0 -50.957,-219.251 -51.066,-219.852 -17.006,-93.127 80.716,-144.837 81.46,-68.865 0.802,81.97 1.215,163.933 -1.676,245.891 -0.182,5.172 7.54,62.413 -12.329,59.05 z"
   id="path4" />
		<path
   d="m 1799.328,553.316 c 20.157,65.083 35.422,131.411 49.666,197.99 3.048,14.25 1.787,27.05 -9.236,38.275 -14.092,14.348 -23.043,12.544 -32.541,-5.169 -17.953,-33.479 -56.681,-154.268 -63.154,-177.928 -16.466,-60.191 36.791,-112.817 55.265,-53.168 z"
   id="path6" />
		<path
   d="m 1750.916,678.323 c 86.62,168.819 22.53,171.66 17.443,160.469 -24.645,-54.207 -102.081,-155.805 -67.92,-195.609 25.172,-29.33 45.294,25.039 50.477,35.14 z"
   id="path8" />
	</g><g
   id="g20"
   transform="matrix(0.91864265,0,0,0.89234406,17.22688,-225.81594)">
		<path
   d="M 261.559,1027.948 C 93.991,864.131 153.426,742.024 273.362,846.868 c 58.088,50.778 87.642,134.92 214.651,224.106 45.376,31.862 96.844,50.188 146.9,71.135 105.682,44.224 95.457,143.435 109.473,212.167 8.65,42.416 31.062,77.924 54.817,112.921 25.071,36.937 24.786,43.389 -2.105,79.68 -58.486,78.917 -135.102,95.29 -227.592,77.672 C 511.569,1613.513 525.973,1504.413 431.175,1398.456 328.745,1283.967 194.803,1273.072 120.34,1119.074 100.816,1078.697 33.746,856.224 38.911,704.747 42.376,603.154 41.332,501.514 54.389,400.399 c 2.079,-16.098 2.49,-32.331 6.856,-48.169 14.528,-52.695 75.915,-29.693 85.585,28.406 25.914,155.694 -3.087,237.1 12.467,358.352 2.688,20.958 0.01,41.099 -13.594,60.456 -61.479,87.481 98.591,247.138 144.073,260.558 -9.365,-10.726 -18.067,-22.129 -28.217,-32.054 z"
   id="path12" />
		<path
   d="m 175.721,711.266 c -2.89,-81.958 -2.477,-163.921 -1.676,-245.891 0.742,-75.972 98.466,-24.263 81.46,68.865 -0.11,0.601 -51.066,219.852 -51.066,219.852 -2.088,8.675 -7.343,14.694 -16.389,16.224 -19.869,3.363 -12.147,-53.878 -12.329,-59.05 z"
   id="path14" />
		<path
   d="m 329.013,606.484 c -6.472,23.66 -45.202,144.449 -63.153,177.928 -9.499,17.713 -18.449,19.517 -32.541,5.169 -11.022,-11.225 -12.284,-24.025 -9.235,-38.275 14.243,-66.579 29.507,-132.907 49.665,-197.99 18.475,-59.649 71.731,-7.023 55.264,53.168 z"
   id="path16" />
		<path
   d="m 372.639,643.183 c 34.161,39.804 -43.275,141.402 -67.92,195.609 -5.087,11.191 -69.177,8.35 17.443,-160.469 5.183,-10.101 25.304,-64.47 50.477,-35.14 z"
   id="path18" />
	</g>
</svg>
